<?xml version="1.0" encoding="utf-8"?>
<!-- Generator: Adobe Illustrator 16.0.0, SVG Export Plug-In . SVG Version: 6.00 Build 0)  -->
<!DOCTYPE svg PUBLIC "-//W3C//DTD SVG 1.1//EN" "http://www.w3.org/Graphics/SVG/1.1/DTD/svg11.dtd">
<svg version="1.1" xmlns="http://www.w3.org/2000/svg" xmlns:xlink="http://www.w3.org/1999/xlink" x="0px" y="0px"
	 width="1226.992px" height="343.961px" viewBox="0 0 1226.992 343.961" enable-background="new 0 0 1226.992 343.961"
	 xml:space="preserve">
<g id="Arrière-plan_xA0_Image_1_">
</g>
<g id="HOMEPAGE_1_1_">
	<g id="Groupe_1_1_">
		<g id="Groupe_3_1_">
			<g id="Scroll_souris_x03_ou_barre_espace">
			</g>
		</g>
		<g id="Alberto__x03_Lombardo" display="none">
			<rect x="379.996" y="76.789" display="inline" fill="none" width="467" height="230.384"/>
			<text transform="matrix(1 0 0 1 470.0376 136.3682)" display="inline"><tspan x="0" y="0" font-family="'BodoniMT'" font-size="90">Alberto  </tspan><tspan x="-53.504" y="72" font-family="'BodoniMT'" font-size="90">Lombardo</tspan></text>
		</g>
		<g id="Auteur__x7C__Comédien__x7C__Animateur" display="none">
			<rect x="265.496" y="270.98" display="inline" fill="none" width="696" height="65"/>
			<text transform="matrix(1 0 0 1 445.8599 286.4365)" display="inline" font-family="'CenturyGothic'" font-size="21">Auteur | Comédien | Animateur</text>
		</g>
		<g id="Groupe_2_1_">
			<g>
				<g id="Rectangle_1_copie_2">
					<g>
						<polygon fill="#BDBDBD" points="265.496,0 151.008,171.98 265.496,343.961 379.982,171.98 						"/>
					</g>
				</g>
				<g id="Rectangle_1">
					<g>
						<polygon fill="#90803A" points="37.871,114.987 0,171.98 37.871,228.974 75.742,171.98 						"/>
					</g>
				</g>
				<g id="Rectangle_1_copie">
					<g>
						<polygon fill="#90803A" points="113.621,114.987 75.75,171.98 113.621,228.974 151.491,171.98 						"/>
					</g>
				</g>
				<g id="Rectangle_1_copie_2_1_">
					<g>
						<polygon fill="#90803A" points="189.371,114.987 151.5,171.98 189.371,228.974 227.242,171.98 						"/>
					</g>
				</g>
				<g id="Rectangle_1_copie_2_2_">
					<g>
						<polygon fill="#90803A" points="265.121,114.987 227.25,171.98 265.121,228.974 302.991,171.98 						"/>
					</g>
				</g>
				<g id="Rectangle_1_copie_8">
					<g>
						<polygon fill="#BDBDBD" points="961.496,0 847.008,171.98 961.496,343.961 1075.982,171.98 						"/>
					</g>
				</g>
				<g id="Rectangle_1_copie_3">
					<g>
						<polygon fill="#90803A" points="961.871,114.987 924,171.98 961.871,228.974 999.742,171.98 						"/>
					</g>
				</g>
				<g id="Rectangle_1_copie_3_1_">
					<g>
						<polygon fill="#90803A" points="1037.621,114.987 999.75,171.98 1037.621,228.974 1075.492,171.98 						"/>
					</g>
				</g>
				<g id="Rectangle_1_copie_3_2_">
					<g>
						<polygon fill="#90803A" points="1113.371,114.987 1075.5,171.98 1113.371,228.974 1151.242,171.98 						"/>
					</g>
				</g>
				<g id="Rectangle_1_copie_3_3_">
					<g>
						<polygon fill="#90803A" points="1189.121,114.987 1151.25,171.98 1189.121,228.974 1226.992,171.98 						"/>
					</g>
				</g>
			</g>
		</g>
	</g>
</g>
<g id="include_x5F_menu1_xA0_Image_1_">
</g>
</svg>
