<?xml version="1.0" encoding="utf-8"?>
<!-- Generator: Adobe Illustrator 16.0.0, SVG Export Plug-In . SVG Version: 6.00 Build 0)  -->
<!DOCTYPE svg PUBLIC "-//W3C//DTD SVG 1.1//EN" "http://www.w3.org/Graphics/SVG/1.1/DTD/svg11.dtd">
<svg version="1.1" xmlns="http://www.w3.org/2000/svg" xmlns:xlink="http://www.w3.org/1999/xlink" x="0px" y="0px" width="1200px"
	 height="3259px" viewBox="0 0 1200 3259" enable-background="new 0 0 1200 3259" xml:space="preserve">
<g id="Arrière-plan_xA0_Image_1_">
	<image overflow="visible" width="1200" height="3259" id="Arrière-plan_xA0_Image" xlink:href="8AE826B3.jpg" >
	</image>
</g>
<g id="_x35__couleurs_1_" display="none">
	<g id="LIGNE_LOZANGE_1_" display="inline">
		<g id="Rectangle_2_copie_6">
			<g>
				<polygon fill="#CCB852" points="85.536,348.63 -0.188,477.062 85.536,605.494 171.259,477.062 				"/>
			</g>
		</g>
		<g id="Rectangle_2_copie_7">
			<g>
				<polygon fill="#E6E6E6" points="256.786,348.63 171.062,477.062 256.786,605.494 342.509,477.062 				"/>
			</g>
		</g>
	</g>
	<g id="LIGNE_LOZANGE_copie_11_1_" display="inline">
		<g id="Rectangle_2_copie_8">
			<g>
				<polygon fill="#90803A" points="428.035,605.63 342.312,734.063 428.035,862.494 513.759,734.063 				"/>
			</g>
		</g>
		<g id="Rectangle_2_copie_12">
			<g>
				<polygon fill="#B90000" points="1114.285,604.63 1028.563,733.063 1114.285,861.494 1200.009,733.063 				"/>
			</g>
		</g>
	</g>
	<g id="sous-ligne_A_copie_10_1_" display="inline">
		<g id="Rectangle_2_copie_15">
			<g>
				<polygon fill="#E6E6E6" points="342.536,733.63 256.812,862.062 342.536,990.494 428.259,862.062 				"/>
			</g>
		</g>
		<g id="Rectangle_2_copie_16">
			<g>
				<polygon fill="#E6E6E6" points="513.535,733.63 427.813,862.062 513.535,990.494 599.259,862.062 				"/>
			</g>
		</g>
		<g id="Rectangle_2_copie_17">
			<g>
				<polygon fill="#E6E6E6" points="1028.535,732.63 942.813,861.062 1028.535,989.494 1114.259,861.062 				"/>
			</g>
		</g>
	</g>
	<g id="LIGNE_LOZANGE_copie_12_1_" display="inline">
		<g id="Rectangle_2_copie_8_1_">
			<g>
				<polygon fill="#CCB852" points="428.035,861.63 342.312,990.062 428.035,1118.494 513.759,990.062 				"/>
			</g>
		</g>
		<g id="Rectangle_2_copie_10">
			<g>
				<polygon fill="#CCB852" points="770.535,861.63 684.813,990.062 770.535,1118.494 856.259,990.062 				"/>
			</g>
		</g>
	</g>
	<g id="LIGNE_LOZANGE_copie_13_1_" display="inline">
		<g id="Rectangle_2_copie_6_1_">
			<g>
				<polygon fill-rule="evenodd" clip-rule="evenodd" fill="#90803A" points="0,1245.282 0,1248.841 84.536,1375.494 
					170.259,1247.062 84.536,1118.63 				"/>
			</g>
		</g>
		<g id="Rectangle_2_copie_8_2_">
			<g>
				<polygon fill="#641919" points="427.035,1118.63 341.312,1247.062 427.035,1375.494 512.759,1247.062 				"/>
			</g>
		</g>
		<g id="Rectangle_2_copie_9">
			<g>
				<polygon fill="#90803A" points="599.285,1118.63 513.563,1247.062 599.285,1375.494 685.009,1247.062 				"/>
			</g>
		</g>
		<g id="Rectangle_2_copie_12_1_">
			<g>
				<polygon fill="#CCB852" points="1114.285,1118.63 1028.563,1247.062 1114.285,1375.494 1200.009,1247.062 				"/>
			</g>
		</g>
	</g>
	<g id="LIGNE_LOZANGE_copie_14_1_" display="inline">
		<g id="Rectangle_2_copie_7_1_">
			<g>
				<polygon fill="#CCB852" points="256.786,1374.63 171.062,1503.062 256.786,1631.494 342.509,1503.062 				"/>
			</g>
		</g>
		<g id="Rectangle_2_copie_9_1_">
			<g>
				<polygon fill="#CCB852" points="599.285,1374.63 513.563,1503.062 599.285,1631.494 685.009,1503.062 				"/>
			</g>
		</g>
		<g id="Rectangle_2_copie_10_1_">
			<g>
				<polygon fill="#90803A" points="770.535,1374.63 684.813,1503.062 770.535,1631.494 856.259,1503.062 				"/>
			</g>
		</g>
		<g id="Rectangle_2_copie_12_2_">
			<g>
				<polygon fill="#90803A" points="1114.285,1374.63 1028.563,1503.062 1114.285,1631.494 1200.009,1503.062 				"/>
			</g>
		</g>
	</g>
	<g id="sous-ligne_A_copie_13_1_" display="inline">
		<g id="Rectangle_2_copie_14">
			<g>
				<polygon fill="#E6E6E6" points="171.536,1502.63 85.812,1631.063 171.536,1759.494 257.259,1631.063 				"/>
			</g>
		</g>
		<g id="Rectangle_2_copie_15_1_">
			<g>
				<polygon fill="#E6E6E6" points="342.536,1502.63 256.812,1631.063 342.536,1759.494 428.259,1631.063 				"/>
			</g>
		</g>
		<g id="Rectangle_2_copie_16_1_">
			<g>
				<polygon fill="#E6E6E6" points="684.535,1502.63 598.813,1631.063 684.535,1759.494 770.259,1631.063 				"/>
			</g>
		</g>
		<g id="Rectangle_2_copie_17_1_">
			<g>
				<polygon fill="#E6E6E6" points="1027.535,1502.63 941.813,1631.063 1027.535,1759.494 1113.259,1631.063 				"/>
			</g>
		</g>
	</g>
	<g id="LIGNE_LOZANGE_copie_15_1_" display="inline">
		<g id="Rectangle_2_copie_7_2_">
			<g>
				<polygon fill="#CCB852" points="255.786,1630.63 170.062,1759.062 255.786,1887.494 341.509,1759.062 				"/>
			</g>
		</g>
		<g id="Rectangle_2_copie_8_3_">
			<g>
				<polygon fill="#90803A" points="427.035,1630.63 341.312,1759.062 427.035,1887.494 512.759,1759.062 				"/>
			</g>
		</g>
		<g id="Rectangle_2_copie_9_2_">
			<g>
				<polygon fill="#B90000" points="598.285,1630.63 512.563,1759.062 598.285,1887.494 684.009,1759.062 				"/>
			</g>
		</g>
		<g id="Rectangle_2_copie_12_3_">
			<g>
				<polygon fill="#641919" points="1114.285,1630.63 1028.563,1759.062 1114.285,1887.494 1200.009,1759.062 				"/>
			</g>
		</g>
	</g>
	<g id="LIGNE_LOZANGE_copie_16_1_" display="inline">
		<g id="Rectangle_2_copie_6_2_">
			<g>
				<polygon fill-rule="evenodd" clip-rule="evenodd" fill="#B90000" points="0,2014.281 0,2017.842 84.536,2144.494 
					170.259,2016.062 84.536,1887.63 				"/>
			</g>
		</g>
		<g id="Rectangle_2_copie_10_2_">
			<g>
				<polygon fill="#90803A" points="769.535,1887.63 683.813,2016.062 769.535,2144.494 855.259,2016.062 				"/>
			</g>
		</g>
		<g id="Rectangle_2_copie_11">
			<g>
				<polygon fill="#641919" points="940.785,1887.63 855.063,2016.062 940.785,2144.494 1026.509,2016.062 				"/>
			</g>
		</g>
	</g>
	<g id="sous-ligne_A_copie_14_1_" display="inline">
		<g id="Rectangle_2_copie_14_1_">
			<g>
				<polygon fill="#E6E6E6" points="170.536,1758.63 84.812,1887.063 170.536,2015.494 256.259,1887.063 				"/>
			</g>
		</g>
		<g id="Rectangle_2_copie_15_2_">
			<g>
				<polygon fill="#E6E6E6" points="341.536,1757.63 255.812,1886.063 341.536,2014.494 427.259,1886.063 				"/>
			</g>
		</g>
		<g id="Rectangle_2_copie_17_2_">
			<g>
				<polygon fill="#E6E6E6" points="854.535,1759.63 768.813,1888.063 854.535,2016.494 940.259,1888.063 				"/>
			</g>
		</g>
	</g>
	<g id="sous-ligne_A_copie_15_1_" display="inline">
		<g id="Rectangle_2_copie_15_3_">
			<g>
				<polygon fill="#E6E6E6" points="341.536,2015.63 255.812,2144.062 341.536,2272.494 427.259,2144.062 				"/>
			</g>
		</g>
	</g>
	<g id="sous-ligne_A_copie_16_1_" display="inline">
		<g id="Rectangle_2_copie_14_2_">
			<g>
				<polygon fill="#E6E6E6" points="170.536,2268.63 84.812,2397.062 170.536,2525.494 256.259,2397.062 				"/>
			</g>
		</g>
		<g id="Rectangle_2_copie_15_4_">
			<g>
				<polygon fill="#641919" points="341.536,2268.63 255.812,2397.062 341.536,2525.494 427.259,2397.062 				"/>
			</g>
		</g>
		<g id="Rectangle_2_copie_16_2_">
			<g>
				<polygon fill="#B90000" points="512.535,2268.63 426.813,2397.062 512.535,2525.494 598.259,2397.062 				"/>
			</g>
		</g>
		<g id="Rectangle_2_copie_17_3_">
			<g>
				<polygon fill="#E6E6E6" points="854.535,2268.63 768.813,2397.062 854.535,2525.494 940.259,2397.062 				"/>
			</g>
		</g>
	</g>
	<g id="sous-ligne_A_copie_17_1_" display="inline">
		<g id="Rectangle_2_copie_16_3_">
			<g>
				<polygon fill="#E6E6E6" points="512.535,2525.63 426.813,2654.062 512.535,2782.494 598.259,2654.062 				"/>
			</g>
		</g>
		<g id="Rectangle_2_copie_20">
			<g>
				<polygon fill="#E6E6E6" points="512.535,2781.63 426.813,2910.062 512.535,3038.494 598.259,2910.062 				"/>
			</g>
		</g>
		<g id="Rectangle_2_copie_17_4_">
			<g>
				<polygon fill="#E6E6E6" points="1026.535,2525.63 940.813,2654.062 1026.535,2782.494 1112.259,2654.062 				"/>
			</g>
		</g>
	</g>
</g>
<g id="TRIOLETS_1_">
	<g id="triolet_B_1_" display="none">
		<g id="Rectangle_2_copie_13" display="inline">
			<g>
				<polygon fill="#330D0D" points="254.533,1440.096 211.672,1504.313 254.533,1568.528 297.395,1504.313 				"/>
			</g>
		</g>
		<g id="Rectangle_2_copie_18" display="inline">
			<g>
				<polygon fill="#330D0D" points="254.533,1568.096 211.672,1632.313 254.533,1696.528 297.395,1632.313 				"/>
			</g>
		</g>
		<g id="Rectangle_2_copie_19" display="inline">
			<g>
				<polygon fill="#330D0D" points="254.533,1696.596 211.672,1760.813 254.533,1825.028 297.395,1760.813 				"/>
			</g>
		</g>
	</g>
	<g id="triolet_B_copie_3_1_" display="none">
		<g id="Rectangle_2_copie_13_1_" display="inline">
			<g>
				<polygon fill="#330D0D" points="1114.533,1119.096 1071.672,1183.313 1114.533,1247.528 1157.396,1183.313 				"/>
			</g>
		</g>
		<g id="Rectangle_2_copie_18_1_" display="inline">
			<g>
				<polygon fill="#330D0D" points="1114.533,1247.096 1071.672,1311.313 1114.533,1375.528 1157.396,1311.313 				"/>
			</g>
		</g>
		<g id="Rectangle_2_copie_19_1_" display="inline">
			<g>
				<polygon fill="#330D0D" points="1114.533,1375.596 1071.672,1439.813 1114.533,1504.028 1157.396,1439.813 				"/>
			</g>
		</g>
	</g>
	<g id="triolet_B_copie_1_" display="none">
		<g id="Rectangle_2_copie_13_2_" display="inline">
			<g>
				<polygon fill="#330D0D" points="770.533,351.096 727.672,415.313 770.533,479.528 813.396,415.313 				"/>
			</g>
		</g>
		<g id="Rectangle_2_copie_18_2_" display="inline">
			<g>
				<polygon fill="#330D0D" points="770.533,479.096 727.672,543.313 770.533,607.528 813.396,543.313 				"/>
			</g>
		</g>
		<g id="Rectangle_2_copie_19_2_" display="inline">
			<g>
				<polygon fill="#330D0D" points="770.533,607.596 727.672,671.813 770.533,736.028 813.396,671.813 				"/>
			</g>
		</g>
	</g>
	<g id="triolet_B_copie_2_1_" display="none">
		<g id="Rectangle_2_copie_13_3_" display="inline">
			<g>
				<polygon fill="#330D0D" points="940.533,1948.096 897.672,2012.313 940.533,2076.528 983.396,2012.313 				"/>
			</g>
		</g>
		<g id="Rectangle_2_copie_18_3_" display="inline">
			<g>
				<polygon fill="#330D0D" points="940.533,2076.096 897.672,2140.313 940.533,2204.528 983.396,2140.313 				"/>
			</g>
		</g>
		<g id="Rectangle_2_copie_19_3_" display="inline">
			<g>
				<polygon fill="#330D0D" points="940.533,2204.596 897.672,2268.813 940.533,2333.028 983.396,2268.813 				"/>
			</g>
		</g>
	</g>
	<g id="triolet_C_1_" display="none">
		<g id="Rectangle_2_copie_13_4_" display="inline">
			<g>
				<polygon fill="#330D0D" points="425.532,637.329 404.102,669.438 425.532,701.545 446.963,669.438 				"/>
			</g>
		</g>
		<g id="Rectangle_2_copie_18_4_" display="inline">
			<g>
				<polygon fill="#330D0D" points="425.532,701.329 404.102,733.438 425.532,765.545 446.963,733.438 				"/>
			</g>
		</g>
		<g id="Rectangle_2_copie_19_4_" display="inline">
			<g>
				<polygon fill="#330D0D" points="425.532,765.579 404.102,797.688 425.532,829.795 446.963,797.688 				"/>
			</g>
		</g>
	</g>
	<g id="triolet_C_copie_2_1_" display="none">
		<g id="Rectangle_2_copie_13_5_" display="inline">
			<g>
				<polygon fill="#330D0D" points="342.532,286.329 321.102,318.438 342.532,350.545 363.963,318.438 				"/>
			</g>
		</g>
		<g id="Rectangle_2_copie_18_5_" display="inline">
			<g>
				<polygon fill="#330D0D" points="342.532,350.329 321.102,382.438 342.532,414.545 363.963,382.438 				"/>
			</g>
		</g>
		<g id="Rectangle_2_copie_19_5_" display="inline">
			<g>
				<polygon fill="#330D0D" points="342.532,414.579 321.102,446.688 342.532,478.795 363.963,446.688 				"/>
			</g>
		</g>
	</g>
	<g id="triolet_C_copie_3_1_" display="none">
		<g id="Rectangle_2_copie_13_6_" display="inline">
			<g>
				<polygon fill="#330D0D" points="684.532,2615.329 663.102,2647.438 684.532,2679.545 705.963,2647.438 				"/>
			</g>
		</g>
		<g id="Rectangle_2_copie_18_6_" display="inline">
			<g>
				<polygon fill="#330D0D" points="684.532,2679.329 663.102,2711.438 684.532,2743.545 705.963,2711.438 				"/>
			</g>
		</g>
		<g id="Rectangle_2_copie_19_6_" display="inline">
			<g>
				<polygon fill="#330D0D" points="684.532,2743.579 663.102,2775.688 684.532,2807.795 705.963,2775.688 				"/>
			</g>
		</g>
	</g>
	<g id="triolet_C_copie_4_1_" display="none">
		<g id="Rectangle_2_copie_13_7_" display="inline">
			<g>
				<polygon fill="#330D0D" points="342.532,1888.329 321.102,1920.438 342.532,1952.545 363.963,1920.438 				"/>
			</g>
		</g>
		<g id="Rectangle_2_copie_18_7_" display="inline">
			<g>
				<polygon fill="#330D0D" points="342.532,1952.329 321.102,1984.438 342.532,2016.545 363.963,1984.438 				"/>
			</g>
		</g>
		<g id="Rectangle_2_copie_19_7_" display="inline">
			<g>
				<polygon fill="#330D0D" points="342.532,2016.579 321.102,2048.688 342.532,2080.795 363.963,2048.688 				"/>
			</g>
		</g>
	</g>
	<g id="triolet_C_copie_5_1_" display="none">
		<g id="Rectangle_2_copie_13_8_" display="inline">
			<g>
				<polygon fill="#330D0D" points="920.532,1037.329 899.102,1069.438 920.532,1101.545 941.963,1069.438 				"/>
			</g>
		</g>
		<g id="Rectangle_2_copie_18_8_" display="inline">
			<g>
				<polygon fill="#330D0D" points="920.532,1101.329 899.102,1133.438 920.532,1165.545 941.963,1133.438 				"/>
			</g>
		</g>
		<g id="Rectangle_2_copie_19_8_" display="inline">
			<g>
				<polygon fill="#330D0D" points="920.532,1165.579 899.102,1197.688 920.532,1229.795 941.963,1197.688 				"/>
			</g>
		</g>
	</g>
	<g id="triolet_C_copie_1_" display="none">
		<g id="Rectangle_2_copie_13_9_" display="inline">
			<g>
				<polygon fill="#330D0D" points="769.532,1407.329 748.102,1439.438 769.532,1471.545 790.963,1439.438 				"/>
			</g>
		</g>
		<g id="Rectangle_2_copie_18_9_" display="inline">
			<g>
				<polygon fill="#330D0D" points="769.532,1471.329 748.102,1503.438 769.532,1535.545 790.963,1503.438 				"/>
			</g>
		</g>
		<g id="Rectangle_2_copie_19_9_" display="inline">
			<g>
				<polygon fill="#330D0D" points="769.532,1535.579 748.102,1567.688 769.532,1599.795 790.963,1567.688 				"/>
			</g>
		</g>
	</g>
	<g id="triolet_D_1_">
		<g id="Rectangle_2_copie_13_10_">
			<g>
				<polygon fill="#330D0D" points="1113.531,941.446 1102.816,957.5 1113.531,973.554 1124.247,957.5 				"/>
			</g>
		</g>
		<g id="Rectangle_2_copie_18_10_">
			<g>
				<polygon fill="#330D0D" points="1113.531,973.445 1102.816,989.5 1113.531,1005.554 1124.247,989.5 				"/>
			</g>
		</g>
		<g id="Rectangle_2_copie_19_10_">
			<g>
				<polygon fill="#330D0D" points="1113.531,1005.571 1102.816,1021.625 1113.531,1037.679 1124.247,1021.625 				"/>
			</g>
		</g>
	</g>
	<g id="triolet_D_copie_1_">
		<g id="Rectangle_2_copie_13_11_">
			<g>
				<polygon fill="#330D0D" points="513.531,170.446 502.816,186.5 513.531,202.554 524.247,186.5 				"/>
			</g>
		</g>
		<g id="Rectangle_2_copie_18_11_">
			<g>
				<polygon fill="#330D0D" points="513.531,202.446 502.816,218.5 513.531,234.554 524.247,218.5 				"/>
			</g>
		</g>
		<g id="Rectangle_2_copie_19_11_">
			<g>
				<polygon fill="#330D0D" points="513.531,234.57 502.816,250.625 513.531,266.679 524.247,250.625 				"/>
			</g>
		</g>
	</g>
	<g id="triolet_D_copie_2_1_">
		<g id="Rectangle_2_copie_13_12_">
			<g>
				<polygon fill="#330D0D" points="83.532,812.445 72.816,828.5 83.532,844.554 94.247,828.5 				"/>
			</g>
		</g>
		<g id="Rectangle_2_copie_18_12_">
			<g>
				<polygon fill="#330D0D" points="83.532,844.445 72.816,860.5 83.532,876.554 94.247,860.5 				"/>
			</g>
		</g>
		<g id="Rectangle_2_copie_19_12_">
			<g>
				<polygon fill="#330D0D" points="83.532,876.57 72.816,892.625 83.532,908.679 94.247,892.625 				"/>
			</g>
		</g>
	</g>
	<g id="triolet_D_copie_5_1_">
		<g id="Rectangle_2_copie_13_13_">
			<g>
				<polygon fill="#330D0D" points="426.531,1487.445 415.816,1503.5 426.531,1519.554 437.247,1503.5 				"/>
			</g>
		</g>
		<g id="Rectangle_2_copie_18_13_">
			<g>
				<polygon fill="#330D0D" points="426.531,1519.445 415.816,1535.5 426.531,1551.554 437.247,1535.5 				"/>
			</g>
		</g>
		<g id="Rectangle_2_copie_19_13_">
			<g>
				<polygon fill="#330D0D" points="426.531,1551.57 415.816,1567.625 426.531,1583.679 437.247,1567.625 				"/>
			</g>
		</g>
	</g>
	<g id="triolet_D_copie_6_1_">
		<g id="Rectangle_2_copie_13_14_">
			<g>
				<polygon fill="#330D0D" points="84.532,1716.445 73.816,1732.5 84.532,1748.554 95.247,1732.5 				"/>
			</g>
		</g>
		<g id="Rectangle_2_copie_18_14_">
			<g>
				<polygon fill="#330D0D" points="84.532,1748.445 73.816,1764.5 84.532,1780.554 95.247,1764.5 				"/>
			</g>
		</g>
		<g id="Rectangle_2_copie_19_14_">
			<g>
				<polygon fill="#330D0D" points="84.532,1780.57 73.816,1796.625 84.532,1812.679 95.247,1796.625 				"/>
			</g>
		</g>
	</g>
	<g id="triolet_D_copie_10_1_">
		<g id="Rectangle_2_copie_13_15_">
			<g>
				<polygon fill="#330D0D" points="84.532,2536.445 73.816,2552.5 84.532,2568.554 95.247,2552.5 				"/>
			</g>
		</g>
		<g id="Rectangle_2_copie_18_15_">
			<g>
				<polygon fill="#330D0D" points="84.532,2568.445 73.816,2584.5 84.532,2600.554 95.247,2584.5 				"/>
			</g>
		</g>
		<g id="Rectangle_2_copie_19_15_">
			<g>
				<polygon fill="#330D0D" points="84.532,2600.57 73.816,2616.625 84.532,2632.679 95.247,2616.625 				"/>
			</g>
		</g>
	</g>
	<g id="triolet_D_copie_7_1_">
		<g id="Rectangle_2_copie_13_16_">
			<g>
				<polygon fill="#330D0D" points="512.531,3108.445 501.816,3124.5 512.531,3140.554 523.247,3124.5 				"/>
			</g>
		</g>
		<g id="Rectangle_2_copie_18_16_">
			<g>
				<polygon fill="#330D0D" points="512.531,3140.445 501.816,3156.5 512.531,3172.554 523.247,3156.5 				"/>
			</g>
		</g>
		<g id="Rectangle_2_copie_19_16_">
			<g>
				<polygon fill="#330D0D" points="512.531,3172.57 501.816,3188.625 512.531,3204.679 523.247,3188.625 				"/>
			</g>
		</g>
	</g>
	<g id="triolet_D_copie_9_1_">
		<g id="Rectangle_2_copie_13_17_">
			<g>
				<polygon fill="#330D0D" points="426.531,2180.445 415.816,2196.5 426.531,2212.554 437.247,2196.5 				"/>
			</g>
		</g>
		<g id="Rectangle_2_copie_18_17_">
			<g>
				<polygon fill="#330D0D" points="426.531,2212.445 415.816,2228.5 426.531,2244.554 437.247,2228.5 				"/>
			</g>
		</g>
		<g id="Rectangle_2_copie_19_17_">
			<g>
				<polygon fill="#330D0D" points="426.531,2244.57 415.816,2260.625 426.531,2276.679 437.247,2260.625 				"/>
			</g>
		</g>
	</g>
	<g id="triolet_D_copie_8_1_">
		<g id="Rectangle_2_copie_13_18_">
			<g>
				<polygon fill="#330D0D" points="1112.531,1948.446 1101.816,1964.5 1112.531,1980.554 1123.247,1964.5 				"/>
			</g>
		</g>
		<g id="Rectangle_2_copie_18_18_">
			<g>
				<polygon fill="#330D0D" points="1112.531,1980.446 1101.816,1996.5 1112.531,2012.554 1123.247,1996.5 				"/>
			</g>
		</g>
		<g id="Rectangle_2_copie_19_18_">
			<g>
				<polygon fill="#330D0D" points="1112.531,2012.57 1101.816,2028.625 1112.531,2044.679 1123.247,2028.625 				"/>
			</g>
		</g>
	</g>
</g>
<g id="PHOTOS_1_">
	<defs>
		<filter id="Adobe_OpacityMaskFilter" filterUnits="userSpaceOnUse">
			<feColorMatrix  type="matrix" values="1 0 0 0 0  0 1 0 0 0  0 0 1 0 0  0 0 0 1 0"/>
		</filter>
	</defs>
	<mask maskUnits="userSpaceOnUse" id="Calque_1_xA0_Image_2_">
		<g id="Calque_1Masque_d_x27_opacité_3_" filter="url(#Adobe_OpacityMaskFilter)">
			<image overflow="visible" width="1200" height="3259" id="Calque_1Masque_d_x27_opacité_2_" xlink:href="8AE826B1.jpg" >
			</image>
		</g>
	</mask>
	<g id="Calque_1_xA0_Image_1_" mask="url(#Calque_1_xA0_Image_2_)">
	</g>
</g>
</svg>
